HIERARCHY
ROOT pelvis
{
	OFFSET 0.00 0.00 0.00
	CHANNELS 6 Xposition Yposition Zposition Xrotation Yrotation Zrotation
	JOINT lfemur
	{
		OFFSET 0.00000 3.20717 0.00000
		CHANNELS 3 Xrotation Yrotation Zrotation
		JOINT ltibia
		{
			OFFSET 0.00000 0.00000 -15.48450
			CHANNELS 3 Xrotation Yrotation Zrotation
			JOINT lfoot
			{
				OFFSET 0.00000 0.00000 -15.12678
				CHANNELS 3 Xrotation Yrotation Zrotation
				JOINT ltoes
				{
					OFFSET 5.14667 0.00000 -1.70681
					CHANNELS 3 Xrotation Yrotation Zrotation
				}
			}
		}
	}
	JOINT rfemur
	{
		OFFSET 0.00000 -3.20717 0.00000
		CHANNELS 3 Xrotation Yrotation Zrotation
		JOINT rtibia
		{
			OFFSET 0.00000 0.00000 -15.79237
			CHANNELS 3 Xrotation Yrotation Zrotation
			JOINT rfoot
			{
				OFFSET 0.00000 0.00000 -14.63938
				CHANNELS 3 Xrotation Yrotation Zrotation
				JOINT rtoes
				{
					OFFSET 4.13531 0.00000 -2.28367
					CHANNELS 3 Xrotation Yrotation Zrotation
				}
			}
		}
	}
	JOINT lowerback
	{
		OFFSET -1.96850 0.00000 5.25621
		CHANNELS 3 Xrotation Yrotation Zrotation
		JOINT upperback
		{
			OFFSET -0.07958 0.00000 5.71078
			CHANNELS 3 Xrotation Yrotation Zrotation
			JOINT lclavicle
			{
				OFFSET 0.00000 0.00000 8.25148
				CHANNELS 3 Xrotation Yrotation Zrotation
				JOINT lhumerus
				{
					OFFSET 0.00000 5.37672 -2.47600
					CHANNELS 3 Xrotation Yrotation Zrotation
					JOINT lradius
					{
						OFFSET 0.00000 0.00000 -11.21411
						CHANNELS 3 Xrotation Yrotation Zrotation
						JOINT lhand
						{
							OFFSET 0.00000 0.00000 -8.03975
							CHANNELS 3 Xrotation Yrotation Zrotation
						}
					}
				}
			}
			JOINT rclavicle
			{
				OFFSET 0.00000 0.00000 8.25148
				CHANNELS 3 Xrotation Yrotation Zrotation
				JOINT rhumerus
				{
					OFFSET 0.00000 -5.17578 -2.36445
					CHANNELS 3 Xrotation Yrotation Zrotation
					JOINT rradius
					{
						OFFSET 0.00000 0.00000 -11.62006
						CHANNELS 3 Xrotation Yrotation Zrotation
						JOINT rhand
						{
							OFFSET 0.00000 0.00000 -7.95557
							CHANNELS 3 Xrotation Yrotation Zrotation
						}
					}
				}
			}
			JOINT LowerNeck
			{
				OFFSET 0.00000 0.00000 8.25148
				CHANNELS 3 Xrotation Yrotation Zrotation
				JOINT Neck
				{
					OFFSET -0.20651 -0.19585 3.46745
					CHANNELS 3 Xrotation Yrotation Zrotation
				}
			}
		}
	}
}
MOTION
Frames: 11
Frame Time: 0.008342
 13.6772 32.2241 36.8908 152.9471 0.3855 -93.0164 -7.7829 -43.7768 2.5438 0.0000 -8.9200 11.7739 -3.2100 45.8017 -6.0811 0.0000 -20.2938 -0.0000 5.6690 -42.7286 -12.4697 -0.0000 -3.4077 -3.3840 0.5850 35.9904 1.4231 0.0000 -9.0984 0.0000 -4.3814 -12.0625 -1.5369 1.4056 43.7319 -0.2506 16.1944 -0.0000 13.7965 157.7028 -9.0261 98.0572 0.0000 1.4209 105.3348 -101.3077 -2.4771 -0.0000 -13.0571 0.0000 -2.0837 -156.6777 -13.0080 -96.3749 0.0000 -5.6589 -12.8728 -43.6882 -36.7923 -0.0000 2.4663 -59.1527 -11.5736 6.6144 -20.6329 10.3515
 13.6741 32.5603 37.3241 150.3369 0.5462 -92.4989 -8.8493 -46.7789 2.8642 -0.0000 -8.9415 9.9642 -2.8126 42.2392 -5.9057 0.0000 -20.1004 0.0000 5.8238 -45.2251 -12.9562 0.0000 -4.6578 -2.8227 0.3599 32.8482 0.9332 0.0000 -9.1712 0.0000 -4.2048 -10.0581 -1.6446 0.9765 44.5859 -0.3296 17.9352 -0.0000 15.1803 156.6774 -9.5054 97.9663 0.0000 -0.3539 106.7561 -96.9606 -3.2801 -0.0000 -14.1438 -0.0000 -2.5263 -155.8925 -12.1784 -96.0189 0.0000 -5.9103 -13.6445 -40.6567 -34.6449 -0.0000 4.5465 -58.9569 -10.8702 6.3232 -21.4630 11.4830
 13.6614 32.9034 37.7976 148.1085 0.3914 -92.3006 -9.3880 -49.5769 -0.9896 -0.0000 -10.1366 14.0859 -2.4742 39.6701 -5.5476 0.0000 -20.2661 -0.0000 5.9097 -48.5446 -12.5261 0.0000 -5.0587 -3.2107 0.3368 29.7743 0.9238 -0.0000 -10.9057 -0.0000 -4.8075 -8.0384 -1.2704 1.8820 44.2150 -0.7033 18.0515 -0.0000 14.3657 156.3410 -8.8397 96.5691 0.0000 -3.0567 115.7855 -84.8419 8.4123 -0.0000 -15.0821 0.0000 -2.2729 -155.1593 -11.4960 -94.8680 0.0000 -7.1005 -12.6741 -37.2100 -30.7682 -0.0000 3.8607 -58.3280 -9.8955 5.8476 -21.6791 9.6330
 13.6315 33.3301 38.2360 145.6479 0.4198 -92.1737 -9.7987 -52.4077 -3.3920 -0.0000 -10.7735 16.2081 -2.2247 36.9716 -5.3113 -0.0000 -20.4755 -0.0000 6.3452 -51.6245 -12.0966 -0.0000 -5.2696 -2.9609 0.3494 26.8401 1.0059 0.0000 -12.5937 0.0000 -5.1529 -6.2214 -0.7522 2.7585 43.9744 -1.0536 18.0359 0.0000 13.3307 156.4222 -8.2265 95.0136 0.0000 -5.1412 118.3104 -73.4097 11.3667 -0.0000 -15.8971 0.0000 -1.8139 -154.5110 -10.8584 -93.6658 0.0000 -8.1816 -11.1195 -33.2190 -26.2941 -0.0000 2.9035 -57.3006 -9.9103 5.8874 -21.8821 8.6848
 13.5972 33.8356 38.6062 142.7775 0.6301 -91.8696 -10.4143 -54.9912 -4.8233 -0.0000 -10.7177 16.6663 -2.1296 33.9847 -5.4157 -0.0000 -20.5119 -0.0000 6.7646 -54.2936 -12.4178 -0.0000 -5.2501 -1.7199 0.3645 23.8863 1.0963 -0.0000 -12.9929 -0.0000 -4.9918 -4.6661 -0.5324 2.6846 44.6831 -1.2586 18.7336 -0.0000 13.8331 156.8006 -8.1137 94.1849 0.0000 -5.6517 117.9803 -67.2806 11.2101 -0.0000 -16.3884 0.0000 -1.7039 -154.1268 -10.2258 -93.2703 -0.0000 -8.5257 -10.6298 -28.4013 -23.1530 -0.0000 3.9524 -56.5478 -10.0211 6.0935 -22.4345 9.8017
 13.5595 34.4117 38.9374 139.6905 0.8628 -91.5659 -11.0053 -57.2517 -6.3401 -0.0000 -10.7981 16.4870 -2.0144 31.2638 -5.3956 -0.0000 -20.5369 -0.0000 7.2164 -56.7626 -12.6657 0.0000 -5.0177 0.1193 0.3807 21.1220 1.1882 0.0000 -13.3471 -0.0000 -4.8240 -3.0706 -0.3234 2.7044 45.2340 -1.4662 19.3407 -0.0000 14.5518 157.4787 -8.2087 93.3574 0.0000 -5.5219 117.4165 -60.7953 13.7568 -0.0000 -16.7223 0.0000 -2.0154 -154.0995 -10.0961 -93.2971 0.0000 -8.4735 -10.3087 -23.1246 -19.6416 -0.0000 4.7833 -55.5251 -10.1924 6.2491 -23.1776 10.7374
 13.5231 35.0430 39.2058 136.3566 1.1366 -91.2157 -11.9004 -59.3505 -7.3690 -0.0000 -10.3845 14.6074 -1.7818 28.3486 -5.0176 0.0000 -20.5450 -0.0000 7.6094 -59.0797 -13.7017 0.0000 -4.4582 2.6080 0.5219 18.8812 1.6743 -0.0000 -13.8383 0.0000 -4.5706 -1.4570 -0.2194 2.6644 45.8828 -1.6096 19.8267 -0.0000 15.5746 158.2162 -8.4694 92.9306 0.0000 -5.3689 116.6079 -53.4281 18.3893 -0.0000 -16.8664 0.0000 -2.4777 -154.2955 -10.0771 -93.2073 0.0000 -8.3091 -10.8710 -17.3613 -16.2272 -0.0000 5.2593 -54.7003 -10.3638 6.3858 -23.5410 11.3914
 13.4753 35.7463 39.4552 133.2191 1.2531 -91.2201 -12.4425 -61.7489 -8.0690 0.0000 -10.8439 18.3290 -2.8964 23.7119 -8.7878 0.0000 -21.4490 -0.0000 8.5659 -61.4238 -12.0237 0.0000 -4.1198 3.5818 0.5850 17.3250 1.9105 0.0000 -13.9887 -0.0000 -4.8559 -0.2250 0.3243 3.6476 45.7181 -1.9937 19.8171 -0.0000 15.5832 158.8919 -9.3215 92.9758 0.0000 -6.2654 110.1091 -42.4581 21.0105 -0.0000 -17.1846 0.0000 -2.8715 -154.6029 -10.8211 -92.7078 0.0000 -8.3499 -10.4071 -10.7237 -10.9632 -0.0000 3.7000 -52.9487 -9.7861 6.1366 -23.7576 9.3414
 13.4319 36.4893 39.6310 129.7340 1.2254 -91.2115 -13.0829 -63.5565 -9.7768 -0.0000 -10.5134 15.8442 -2.0270 20.7249 -6.3783 0.0000 -20.7455 -0.0000 9.3129 -63.5159 -11.0848 -0.0000 -3.3800 4.5646 0.7665 16.0019 2.5397 -0.0000 -13.9434 0.0000 -5.3334 1.1922 0.7726 4.4072 45.4500 -1.9892 19.8197 -0.0000 15.6269 159.5231 -10.7262 93.4328 0.0000 -7.4405 103.1534 -33.3879 23.2449 -0.0000 -17.4496 0.0000 -3.1335 -154.7182 -11.6392 -92.8565 0.0000 -8.4169 -9.8108 -2.7139 -4.4569 -0.0000 2.6536 -50.9990 -9.6586 5.7970 -23.8297 8.0652
 13.3894 37.3016 39.7235 126.1147 1.2433 -91.2011 -13.3197 -64.9814 -11.7564 -0.0000 -10.2462 13.5331 -1.1808 18.8943 -3.7912 -0.0000 -20.4641 0.0000 10.0910 -65.3125 -9.7249 -0.0000 -2.6198 5.2711 0.8200 14.8356 2.7497 -0.0000 -13.8378 0.0000 -5.5966 2.3024 1.1257 5.0198 45.1911 -2.0139 19.4764 -0.0000 15.6067 160.1082 -12.5433 93.1199 0.0000 -8.4763 99.3215 -27.5759 23.0925 0.0000 -17.6934 0.0000 -3.0926 -154.8929 -12.5572 -91.7589 0.0000 -8.1489 -12.0917 6.0486 2.9864 0.0000 1.4050 -48.7312 -9.8906 5.6927 -23.5965 7.2196
 13.3502 38.1695 39.7044 122.2506 1.3796 -91.0320 -13.7055 -66.2437 -13.1177 -0.0000 -9.4254 13.2535 -1.0253 16.7516 -3.3713 0.0000 -20.4762 -0.0000 10.5181 -66.6679 -8.9163 -0.0000 -1.8843 6.1757 0.7232 13.7196 2.4516 0.0000 -13.9051 -0.0000 -5.3040 2.8564 1.0697 4.6896 45.8858 -2.1637 19.2806 -0.0000 16.2133 160.8733 -14.1349 94.9372 0.0000 -7.8954 100.6956 -26.7364 22.1960 -0.0000 -17.7044 0.0000 -3.3537 -155.3594 -13.9391 -94.1100 0.0000 -6.9383 -13.9779 13.7164 8.0229 0.0000 1.7070 -46.6189 -10.0118 5.8440 -23.7906 7.9444
